<svg width="65" height="65" viewBox="0 0 65 65" fill="none" xmlns="http://www.w3.org/2000/svg">
<path fill-rule="evenodd" clip-rule="evenodd" d="M27.4599 19.3934C28.8178 19.3308 29.2508 19.317 32.7099 19.317C36.169 19.317 36.6019 19.332 37.9587 19.3934C39.3155 19.4547 40.2416 19.6712 41.052 19.9849C41.9005 20.3056 42.6704 20.8069 43.3071 21.4552C43.9554 22.0907 44.4555 22.8594 44.775 23.7091C45.0899 24.5195 45.3052 25.4456 45.3677 26.8001C45.4302 28.1603 45.4441 28.5933 45.4441 32.0512C45.4441 35.5103 45.4291 35.9433 45.3677 37.3012C45.3064 38.6557 45.0899 39.5818 44.775 40.3922C44.4555 41.242 43.9546 42.012 43.3071 42.6485C42.6704 43.2968 41.9005 43.7969 41.052 44.1164C40.2416 44.4313 39.3155 44.6466 37.961 44.7091C36.6019 44.7716 36.169 44.7855 32.7099 44.7855C29.2508 44.7855 28.8178 44.7705 27.4599 44.7091C26.1054 44.6477 25.1793 44.4313 24.3689 44.1164C23.5191 43.7968 22.7491 43.2959 22.1126 42.6485C21.4648 42.0125 20.9634 41.2429 20.6436 40.3933C20.3298 39.583 20.1145 38.6568 20.052 37.3024C19.9895 35.9421 19.9756 35.5092 19.9756 32.0512C19.9756 28.5921 19.9906 28.1592 20.052 26.8024C20.1133 25.4456 20.3298 24.5195 20.6436 23.7091C20.9639 22.8595 21.4656 22.0899 22.1138 21.454C22.7494 20.8063 23.5186 20.305 24.3678 19.9849C25.1781 19.6712 26.1042 19.4559 27.4587 19.3934H27.4599ZM37.8557 21.6855C36.5128 21.6242 36.1099 21.6114 32.7099 21.6114C29.3098 21.6114 28.9069 21.6242 27.5641 21.6855C26.3219 21.7423 25.6481 21.9495 25.199 22.1243C24.6051 22.3558 24.1802 22.6302 23.7345 23.0759C23.312 23.4869 22.9869 23.9873 22.7829 24.5403C22.6081 24.9895 22.4009 25.6633 22.3442 26.9054C22.2828 28.2483 22.2701 28.6512 22.2701 32.0512C22.2701 35.4513 22.2828 35.8541 22.3442 37.197C22.4009 38.4392 22.6081 39.113 22.7829 39.5621C22.9867 40.1143 23.312 40.6156 23.7345 41.0266C24.1455 41.4491 24.6467 41.7744 25.199 41.9782C25.6481 42.153 26.3219 42.3602 27.5641 42.4169C28.9069 42.4783 29.3087 42.491 32.7099 42.491C36.1111 42.491 36.5128 42.4783 37.8557 42.4169C39.0978 42.3602 39.7716 42.153 40.2208 41.9782C40.8147 41.7466 41.2395 41.4723 41.6852 41.0266C42.1078 40.6156 42.4331 40.1143 42.6368 39.5621C42.8116 39.113 43.0188 38.4392 43.0756 37.197C43.1369 35.8541 43.1497 35.4513 43.1497 32.0512C43.1497 28.6512 43.1369 28.2483 43.0756 26.9054C43.0188 25.6633 42.8116 24.9895 42.6368 24.5403C42.4053 23.9464 42.1309 23.5216 41.6852 23.0759C41.2742 22.6534 40.7738 22.3283 40.2208 22.1243C39.7716 21.9495 39.0978 21.7423 37.8557 21.6855V21.6855ZM31.0833 35.9769C31.9917 36.355 33.0032 36.406 33.945 36.1212C34.8868 35.8365 35.7006 35.2335 36.2472 34.4155C36.7939 33.5974 37.0396 32.6149 36.9423 31.6358C36.8451 30.6566 36.4109 29.7417 35.714 29.0471C35.2697 28.6031 34.7325 28.2631 34.1411 28.0517C33.5497 27.8402 32.9187 27.7625 32.2937 27.8242C31.6686 27.8858 31.065 28.0853 30.5263 28.4082C29.9876 28.7312 29.5272 29.1695 29.1782 29.6917C28.8292 30.214 28.6004 30.8071 28.5081 31.4284C28.4159 32.0496 28.4626 32.6837 28.6448 33.2847C28.827 33.8858 29.1402 34.439 29.5619 34.9045C29.9835 35.3701 30.5032 35.7363 31.0833 35.9769ZM28.0815 27.4229C28.6893 26.8151 29.4109 26.333 30.205 26.004C30.9992 25.6751 31.8503 25.5058 32.7099 25.5058C33.5694 25.5058 34.4206 25.6751 35.2147 26.004C36.0088 26.333 36.7304 26.8151 37.3382 27.4229C37.946 28.0307 38.4281 28.7523 38.7571 29.5464C39.086 30.3405 39.2553 31.1917 39.2553 32.0512C39.2553 32.9108 39.086 33.7619 38.7571 34.5561C38.4281 35.3502 37.946 36.0718 37.3382 36.6796C36.1107 37.9071 34.4458 38.5967 32.7099 38.5967C30.9739 38.5967 29.309 37.9071 28.0815 36.6796C26.854 35.4521 26.1644 33.7872 26.1644 32.0512C26.1644 30.3153 26.854 28.6504 28.0815 27.4229V27.4229ZM40.707 26.4806C40.8576 26.3385 40.9782 26.1676 41.0616 25.9781C41.145 25.7886 41.1895 25.5843 41.1925 25.3772C41.1955 25.1702 41.157 24.9647 41.0792 24.7728C41.0013 24.5809 40.8858 24.4066 40.7394 24.2602C40.5929 24.1138 40.4186 23.9983 40.2268 23.9204C40.0349 23.8426 39.8294 23.804 39.6223 23.807C39.4153 23.8101 39.211 23.8546 39.0215 23.938C38.8319 24.0214 38.6611 24.142 38.519 24.2926C38.2427 24.5855 38.0914 24.9746 38.0973 25.3772C38.1031 25.7799 38.2657 26.1644 38.5504 26.4491C38.8352 26.7339 39.2197 26.8964 39.6223 26.9023C40.025 26.9082 40.4141 26.7569 40.707 26.4806V26.4806Z" fill="black"/>
<circle cx="32.71" cy="32.0512" r="30" stroke="black" stroke-width="4"/>
</svg>
