<svg width="64" height="65" viewBox="0 0 64 65" fill="none" xmlns="http://www.w3.org/2000/svg">
<path fill-rule="evenodd" clip-rule="evenodd" d="M30.1544 27.6964H34.2653V29.744C34.8574 28.5663 36.376 27.5082 38.6572 27.5082C43.0304 27.5082 44.0686 29.8525 44.0686 34.1537V42.1197H39.6412V35.1333C39.6412 32.6838 39.0491 31.3025 37.5415 31.3025C35.4507 31.3025 34.5818 32.7912 34.5818 35.1322V42.1197H30.1544V27.6964V27.6964ZM22.5625 41.9315H26.9899V27.5082H22.5625V41.9315V41.9315ZM27.6242 22.8052C27.6243 23.1763 27.5507 23.5437 27.4077 23.8861C27.2646 24.2285 27.0549 24.5391 26.7907 24.7997C26.2554 25.3317 25.5309 25.6295 24.7762 25.6277C24.0229 25.6272 23.3001 25.3301 22.764 24.8008C22.5008 24.5393 22.2918 24.2284 22.149 23.886C22.0061 23.5435 21.9323 23.1762 21.9316 22.8052C21.9316 22.0559 22.2305 21.3386 22.7651 20.8095C23.3007 20.2795 24.0239 19.9824 24.7773 19.9827C25.5322 19.9827 26.2561 20.2805 26.7907 20.8095C27.3242 21.3386 27.6242 22.0559 27.6242 22.8052Z" fill="black"/>
<circle cx="32" cy="32.0512" r="30" stroke="black" stroke-width="4"/>
</svg>
