<svg width="65" height="65" viewBox="0 0 65 65" fill="none" xmlns="http://www.w3.org/2000/svg">
<path d="M45.3971 25.544C44.5067 25.9385 43.5501 26.2051 42.5445 26.3256C43.5821 25.7048 44.3584 24.7276 44.7285 23.5764C43.7536 24.1555 42.6867 24.5631 41.574 24.7815C40.8258 23.9826 39.8348 23.4531 38.7548 23.2751C37.6748 23.0972 36.5662 23.2808 35.6013 23.7974C34.6363 24.3141 33.8689 25.1348 33.4182 26.1323C32.9676 27.1298 32.8588 28.2481 33.1088 29.3137C31.1335 29.2145 29.2011 28.7011 27.437 27.8068C25.6729 26.9124 24.1166 25.6572 22.8691 24.1224C22.4425 24.8582 22.1973 25.7114 22.1973 26.62C22.1968 27.4379 22.3982 28.2433 22.7837 28.9647C23.1691 29.6861 23.7267 30.3013 24.4069 30.7555C23.618 30.7304 22.8466 30.5173 22.1567 30.1338V30.1978C22.1567 31.345 22.5535 32.4569 23.2799 33.3448C24.0063 34.2327 25.0175 34.8419 26.1419 35.0692C25.4101 35.2672 24.6429 35.2964 23.8982 35.1545C24.2155 36.1416 24.8334 37.0047 25.6656 37.6232C26.4978 38.2416 27.5026 38.5843 28.5392 38.6033C26.7795 39.9847 24.6062 40.7341 22.369 40.7308C21.9727 40.7309 21.5767 40.7077 21.1831 40.6615C23.454 42.1216 26.0975 42.8965 28.7973 42.8935C37.9365 42.8935 42.9326 35.324 42.9326 28.7592C42.9326 28.5459 42.9273 28.3305 42.9177 28.1172C43.8895 27.4144 44.7284 26.5441 45.395 25.5471L45.3971 25.544V25.544Z" fill="black"/>
<circle cx="32.29" cy="32.0512" r="30" stroke="black" stroke-width="4"/>
</svg>
